<svg xmlns="http://www.w3.org/2000/svg" viewBox="0 0 99.39 16.97">
    <defs>
        <style>.cls-1{fill:#172B4D;}</style>
    </defs>
    <title>Fichier 2</title>
    <g id="Calque_2" data-name="Calque 2">
        <g id="Calque_1-2" data-name="Calque 1">
            <path class="cls-1"
                  d="M10.26,1.51,8.15,6.37,5.92,11.5a.13.13,0,0,1-.13.08l-2-.08L.13,11.34A.13.13,0,0,1,0,11.11L10,1.36A.13.13,0,0,1,10.26,1.51Z"/>
            <path class="cls-1"
                  d="M14.08,7.53,5,16.92a.16.16,0,0,1-.26-.18l2.14-5.26,1.7-4.16a.08.08,0,0,1,.07,0l1.61,0L14,7.4A.07.07,0,0,1,14.08,7.53Z"/>
            <path class="cls-1"
                  d="M19.59,12.83a6.47,6.47,0,0,0,2.86.8c1,0,1.41-.35,1.41-.89s-.32-.81-1.57-1.22c-2.2-.74-3.05-1.94-3-3.21,0-2,1.7-3.49,4.34-3.49a7.11,7.11,0,0,1,3,.61L26,7.72a5.23,5.23,0,0,0-2.31-.61c-.81,0-1.26.33-1.26.87s.41.77,1.72,1.23c2,.69,2.88,1.72,2.9,3.29,0,2-1.57,3.44-4.62,3.44A7.52,7.52,0,0,1,19,15.2Z"/>
            <path class="cls-1"
                  d="M39.62,10.27A5.35,5.35,0,0,1,34,16a5.23,5.23,0,0,1-5.52-5.5,5.32,5.32,0,0,1,5.69-5.65A5.19,5.19,0,0,1,39.62,10.27Zm-7.72.11c0,1.83.76,3.21,2.18,3.21s2.11-1.29,2.11-3.21c0-1.59-.61-3.2-2.11-3.2S31.9,8.81,31.9,10.38Z"/>
            <path class="cls-1"
                  d="M42,15.73V7.5H40.65V5.06H42V4.65A4.87,4.87,0,0,1,43.4,1.07,4.29,4.29,0,0,1,46.34,0a6.44,6.44,0,0,1,1.77.22L48,2.77a3.53,3.53,0,0,0-1.07-.15c-1.09,0-1.55.85-1.55,1.9v.54H47.5V7.5H45.38v8.23Z"/>
            <path class="cls-1"
                  d="M53.15,2V5.06h2.38V7.5H53.15v3.86c0,1.29.31,1.88,1.31,1.88a4.88,4.88,0,0,0,1-.09l0,2.51a6.35,6.35,0,0,1-2.16.28A3.44,3.44,0,0,1,50.82,15a4.42,4.42,0,0,1-.92-3.16V7.5H48.48V5.06H49.9V2.75Z"/>
            <path class="cls-1"
                  d="M59.89,11.45c.11,1.38,1.47,2,3,2A9.24,9.24,0,0,0,65.85,13l.44,2.25a10.54,10.54,0,0,1-3.87.65c-3.62,0-5.69-2.09-5.69-5.43,0-2.7,1.68-5.69,5.39-5.69,3.45,0,4.75,2.68,4.75,5.32a7.2,7.2,0,0,1-.11,1.31ZM63.8,9.18A1.93,1.93,0,0,0,61.92,7a2.19,2.19,0,0,0-2.05,2.16Z"/>
            <path class="cls-1"
                  d="M74.93,15.73l-.2-1.07h-.06A3.85,3.85,0,0,1,71.61,16a3.26,3.26,0,0,1-3.44-3.28c0-2.77,2.48-4.1,6.26-4.07V8.46c0-.56-.31-1.37-1.94-1.37a6,6,0,0,0-2.95.81l-.61-2.14a8.71,8.71,0,0,1,4.14-.94c3.56,0,4.69,2.09,4.69,4.6v3.71a16.3,16.3,0,0,0,.16,2.6Zm-.39-5c-1.75,0-3.1.39-3.1,1.68a1.19,1.19,0,0,0,1.31,1.26,1.8,1.8,0,0,0,1.72-1.22,2.52,2.52,0,0,0,.07-.56Z"/>
            <path class="cls-1"
                  d="M80.37,12.83a6.46,6.46,0,0,0,2.85.8c1,0,1.42-.35,1.42-.89s-.33-.81-1.57-1.22c-2.2-.74-3-1.94-3-3.21,0-2,1.7-3.49,4.34-3.49a7.14,7.14,0,0,1,3,.61L86.8,7.72a5.27,5.27,0,0,0-2.31-.61c-.81,0-1.27.33-1.27.87s.42.77,1.73,1.23c2,.69,2.88,1.72,2.9,3.29,0,2-1.57,3.44-4.63,3.44a7.47,7.47,0,0,1-3.44-.74Z"/>
            <path class="cls-1"
                  d="M92.41,11.45c.11,1.38,1.46,2,3,2a9.24,9.24,0,0,0,3-.44l.43,2.25a10.45,10.45,0,0,1-3.86.65c-3.62,0-5.69-2.09-5.69-5.43,0-2.7,1.68-5.69,5.39-5.69,3.44,0,4.75,2.68,4.75,5.32a7.2,7.2,0,0,1-.11,1.31Zm3.91-2.27A1.93,1.93,0,0,0,94.44,7a2.18,2.18,0,0,0-2,2.16Z"/>
        </g>
    </g>
</svg>
